<svg width="200" height="170" viewBox="0 0 200 170" fill="none" xmlns="http://www.w3.org/2000/svg">
<rect width="200" height="170" fill="#F3F3F4"/>
<path d="M73.7704 123C75.2874 123 77.163 123.194 79.3978 123.581L79.4288 124.866C79.449 125.426 79.4796 126.043 79.521 126.716L79.6286 128.459C78.4292 128.174 77.458 127.98 76.715 127.878C75.9714 127.776 75.2822 127.725 74.6463 127.725C73.2633 127.725 72.0178 128 70.9105 128.55C69.8038 129.101 68.9324 129.902 68.2971 130.951C67.6612 132.001 67.3434 133.163 67.3434 134.437C67.3434 135.599 67.6099 136.596 68.1429 137.427C68.6758 138.257 69.396 138.9 70.3031 139.353C71.2102 139.807 72.3303 140.033 73.6627 140.033C74.3902 140.033 75.1824 139.975 76.0382 139.858C76.894 139.741 77.9677 139.514 79.2591 139.177C79.1365 139.777 78.9875 140.613 78.8137 141.685C78.6393 142.757 78.5213 143.588 78.4597 144.177C76.2659 144.504 74.3085 144.667 72.5865 144.667C70.9261 144.667 69.3811 144.46 67.9514 144.048C66.5213 143.634 65.2091 142.957 64.0149 142.014C62.8207 141.071 61.9675 139.962 61.4547 138.688C60.9425 137.414 60.6863 135.987 60.6863 134.407C60.6863 132.562 61.0319 130.903 61.7242 129.43C62.416 127.957 63.41 126.729 64.7067 125.745C66.0034 124.761 67.4257 124.058 68.9733 123.635C70.521 123.212 72.1203 123 73.7704 123ZM136.393 123C138.032 123 139.611 123.219 141.128 123.657C142.645 124.096 143.973 124.797 145.111 125.76C146.248 126.724 147.099 127.832 147.663 129.085C148.227 130.339 148.509 131.782 148.509 133.413C148.509 135.125 148.199 136.698 147.578 138.13C146.958 139.562 146.064 140.777 144.895 141.777C143.727 142.776 142.333 143.507 140.713 143.971C139.094 144.435 137.407 144.667 135.655 144.667C133.923 144.667 132.262 144.44 130.673 143.986C129.085 143.532 127.703 142.799 126.53 141.784C125.356 140.77 124.523 139.641 124.032 138.398C123.539 137.154 123.293 135.773 123.293 134.254C123.293 132.022 123.814 130.062 124.854 128.374C125.894 126.688 127.437 125.37 129.481 124.422C131.526 123.474 133.83 123 136.393 123ZM114.846 123C116.578 123 118.465 123.199 120.504 123.596C120.535 124.3 120.571 124.945 120.612 125.531C120.653 126.117 120.75 127.144 120.904 128.611C119.96 128.235 119.1 127.972 118.321 127.824C117.542 127.676 116.87 127.602 116.307 127.602C115.507 127.602 114.844 127.75 114.316 128.046C113.788 128.342 113.524 128.709 113.524 129.147C113.524 129.351 113.565 129.55 113.647 129.743C113.729 129.937 113.883 130.164 114.108 130.424C114.333 130.683 114.631 130.969 115 131.28C115.369 131.591 115.948 132.052 116.737 132.664L117.844 133.535C118.172 133.8 118.526 134.121 118.905 134.499C119.285 134.876 119.613 135.248 119.889 135.615C120.166 135.981 120.378 136.318 120.527 136.624C120.676 136.929 120.786 137.238 120.858 137.548C120.929 137.86 120.965 138.194 120.965 138.551C120.965 139.468 120.744 140.342 120.304 141.172C119.863 142.003 119.238 142.686 118.429 143.221C117.619 143.757 116.73 144.131 115.76 144.345C114.792 144.559 113.77 144.666 112.694 144.666C111.033 144.666 108.937 144.427 106.405 143.948C106.273 141.777 106.118 140.038 105.945 138.734C107.094 139.243 108.119 139.598 109.017 139.797C109.916 139.995 110.703 140.095 111.382 140.095C112.274 140.095 112.986 139.965 113.514 139.705C114.044 139.445 114.308 139.06 114.308 138.551C114.308 138.377 114.282 138.212 114.231 138.054C114.179 137.895 114.082 137.717 113.939 137.519C113.795 137.319 113.589 137.103 113.322 136.869L110.426 134.361C109.747 133.79 109.275 133.377 109.008 133.123C108.464 132.602 108.04 132.119 107.737 131.67C107.434 131.222 107.213 130.765 107.074 130.301C106.936 129.838 106.867 129.346 106.867 128.826C106.867 128.204 106.977 127.595 107.197 126.999C107.417 126.402 107.748 125.844 108.189 125.324C108.629 124.805 109.213 124.356 109.941 123.979C110.669 123.602 111.448 123.344 112.279 123.206C113.109 123.069 113.964 123 114.846 123ZM58.1646 123.398C57.9793 125.691 57.8303 127.863 57.717 129.912C57.5731 132.766 57.4702 135.434 57.4086 137.916C57.3466 140.398 57.316 142.516 57.316 144.269L54.1654 144.238C53.5507 144.238 52.2908 144.249 50.3852 144.269C50.976 136.084 51.271 129.784 51.271 125.37L51.256 123.398C52.8948 123.417 54.0376 123.427 54.6852 123.428L54.9741 123.428C55.3793 123.426 56.4428 123.416 58.1646 123.398ZM90.1297 123.398L89.4028 134.82L89.0317 144.269L85.6985 144.239C85.2272 144.239 84.0542 144.249 82.1806 144.269C82.3762 142.363 82.5153 140.783 82.5982 139.529C82.7524 137.307 82.9179 134.264 83.0928 130.401C83.212 127.806 83.274 125.95 83.2783 124.834L83.2785 123.398C84.8257 123.416 85.9371 123.427 86.6127 123.428L86.9277 123.428C87.4228 123.427 88.4898 123.417 90.1297 123.398ZM174 123.398L173.631 127.954L172.94 140.614L172.847 144.269C171.514 144.249 170.267 144.238 169.108 144.238C168.144 144.238 166.81 144.249 165.109 144.269C164.576 143.27 164.181 142.545 163.925 142.097L161.346 137.737C160.496 136.31 159.713 134.943 158.996 133.638C158.526 132.812 158.04 131.905 157.538 130.916L157.208 138.166L157.049 144.269C155.78 144.249 154.813 144.238 154.147 144.238C153.584 144.238 152.53 144.249 150.984 144.269L151.291 141.058L151.891 130.172L152.06 125.783V123.398C153.507 123.416 154.8 123.427 155.942 123.428L156.28 123.429C157.152 123.429 158.379 123.418 159.96 123.398L166.523 135.268L167.428 137.012C167.543 135.298 167.661 132.897 167.783 129.807C167.904 126.717 167.964 124.581 167.964 123.398C169.126 123.417 170.076 123.427 170.81 123.428L171.091 123.428C171.51 123.427 172.48 123.417 174 123.398ZM104.521 123.398L98.0323 131.541L96.8175 133.176L97.9558 134.981L104.382 144.269L100.6 144.239C99.7796 144.239 98.3906 144.249 96.4335 144.269C95.1112 141.79 92.9277 138.118 89.8834 133.252L93.3276 128.592L96.1109 124.712L96.9713 123.398C98.712 123.417 99.94 123.427 100.655 123.428L100.928 123.428C101.277 123.426 102.474 123.416 104.521 123.398ZM37.227 123.306C38.6003 123.306 39.8043 123.388 40.8391 123.55C41.874 123.714 42.84 124.05 43.7361 124.56C44.6333 125.069 45.3836 125.737 45.988 126.563C46.5923 127.389 47.0538 128.354 47.3715 129.46C47.6892 130.566 47.8481 131.705 47.8481 132.878C47.8481 134.03 47.725 135.138 47.4792 136.204C47.2329 137.269 46.8893 138.229 46.449 139.085C46.0081 139.941 45.4933 140.678 44.9035 141.295C44.3141 141.912 43.6404 142.44 42.8819 142.878C42.3179 143.204 41.7493 143.459 41.1755 143.642C40.6011 143.825 39.8167 143.974 38.8232 144.086C37.7159 144.208 36.4602 144.269 35.0559 144.269L28.8448 144.223C28.2601 144.223 27.3117 144.239 26 144.269C26.2271 141.945 26.3819 140.085 26.4641 138.688C26.5883 136.609 26.712 133.917 26.8356 130.614C26.9282 128.087 26.9748 126.278 26.9748 125.187V123.398C28.1737 123.428 29.2085 123.443 30.0793 123.443C30.9202 123.443 32.0217 123.421 33.3841 123.375C34.747 123.329 36.0281 123.306 37.227 123.306ZM136.116 127.602C134.937 127.602 133.871 127.891 132.918 128.466C131.965 129.042 131.232 129.843 130.719 130.867C130.207 131.891 129.951 132.99 129.951 134.162C129.951 135.243 130.184 136.232 130.651 137.129C131.116 138.026 131.826 138.726 132.78 139.231C133.733 139.735 134.742 139.988 135.809 139.988C136.946 139.988 137.989 139.705 138.938 139.139C139.885 138.573 140.608 137.778 141.105 136.754C141.602 135.73 141.851 134.657 141.851 133.535C141.851 132.445 141.621 131.438 141.159 130.515C140.697 129.593 140.021 128.877 139.13 128.367C138.238 127.858 137.233 127.602 136.116 127.602ZM35.7788 127.786C35.0404 127.786 34.1696 127.817 33.1647 127.877L32.6473 139.667C33.2108 139.718 33.7996 139.743 34.4143 139.743C35.459 139.743 36.3914 139.651 37.211 139.468C38.0306 139.284 38.7498 138.892 39.3696 138.29C39.9895 137.689 40.4479 136.917 40.7449 135.974C41.0419 135.031 41.1904 134.065 41.1904 133.076C41.1904 131.864 40.97 130.842 40.5297 130.01C40.0884 129.18 39.5021 128.602 38.7694 128.275C38.0362 127.949 37.0397 127.786 35.7788 127.786Z" fill="#C1C5C8"/>
<path d="M135.924 93.6994L133.054 90.8297L124.186 81.9628L107.298 65.0754L71.1663 28.9459L68.2964 26.0762C66.8614 24.6413 64.5434 24.6413 63.1085 26.0762C61.6367 27.511 61.6367 29.8289 63.0717 31.2638L68.9955 37.1873V85.642C68.9955 89.6891 72.307 93.0004 76.3543 93.0004H124.812L130.736 98.9238C132.171 100.359 134.489 100.359 135.924 98.9238C137.359 97.489 137.359 95.1343 135.924 93.6994ZM80.1073 81.9628C78.5619 81.9628 77.7157 80.1968 78.6723 78.9827L87.834 67.2093C88.5699 66.2896 89.9681 66.2528 90.704 67.1726L98.4307 76.4809L102.736 70.9253L113.774 81.9628H80.1073ZM135.225 82.5883L79.4082 26.7752H127.866C131.913 26.7752 135.225 30.0865 135.225 34.1336V82.5883Z" fill="#C1C5C8"/>
</svg>
