<svg width="600" height="510" viewBox="0 0 600 510" fill="none" xmlns="http://www.w3.org/2000/svg">
<path d="M221.311 365.001C225.862 365.001 231.489 365.581 238.193 366.744L238.287 370.597C238.347 372.279 238.439 374.129 238.563 376.148L238.886 381.376C235.288 380.521 232.374 379.939 230.145 379.634C227.914 379.328 225.847 379.175 223.939 379.175C219.79 379.175 216.053 380.001 212.732 381.651C209.411 383.303 206.797 385.705 204.891 388.854C202.984 392.003 202.03 395.489 202.03 399.311C202.03 402.798 202.83 405.787 204.429 408.28C206.027 410.771 208.188 412.7 210.909 414.06C213.63 415.421 216.991 416.1 220.988 416.1C223.171 416.1 225.547 415.926 228.115 415.573C230.682 415.222 233.903 414.541 237.777 413.532C237.41 415.332 236.962 417.839 236.441 421.054C235.918 424.271 235.564 426.763 235.379 428.532C228.798 429.511 222.925 430 217.759 430C212.778 430 208.143 429.381 203.854 428.143C199.564 426.903 195.627 424.87 192.045 422.041C188.462 419.213 185.902 415.886 184.364 412.064C182.827 408.242 182.059 403.961 182.059 399.22C182.059 393.686 183.096 388.709 185.173 384.289C187.248 379.87 190.23 376.186 194.12 373.235C198.01 370.283 202.277 368.173 206.92 366.904C211.563 365.635 216.361 365.001 221.311 365.001ZM409.178 365.001C414.097 365.001 418.834 365.658 423.385 366.972C427.936 368.289 431.919 370.39 435.332 373.279C438.744 376.171 441.298 379.496 442.988 383.256C444.681 387.018 445.526 391.345 445.526 396.239C445.526 401.376 444.596 406.094 442.733 410.39C440.874 414.686 438.192 418.332 434.686 421.33C431.18 424.327 426.998 426.52 422.14 427.913C417.282 429.304 412.222 430 406.965 430C401.768 430 396.786 429.319 392.019 427.957C387.254 426.597 383.109 424.396 379.59 421.353C376.068 418.311 373.57 414.924 372.095 411.193C370.616 407.462 369.88 403.318 369.88 398.761C369.88 392.065 371.442 386.185 374.562 381.123C377.683 376.063 382.311 372.111 388.444 369.266C394.579 366.422 401.491 365.001 409.178 365.001ZM344.538 365C349.734 365 355.394 365.597 361.512 366.789C361.605 368.899 361.712 370.834 361.835 372.592C361.958 374.352 362.251 377.431 362.712 381.834C359.881 380.704 357.3 379.917 354.962 379.472C352.626 379.029 350.611 378.807 348.921 378.807C346.521 378.807 344.532 379.251 342.948 380.138C341.365 381.025 340.573 382.126 340.573 383.441C340.573 384.052 340.695 384.65 340.941 385.23C341.186 385.811 341.648 386.491 342.325 387.271C343 388.05 343.892 388.906 344.999 389.84C346.108 390.772 347.844 392.157 350.211 393.991L353.533 396.606C354.517 397.401 355.578 398.364 356.716 399.496C357.854 400.627 358.838 401.743 359.667 402.844C360.499 403.944 361.134 404.954 361.582 405.873C362.027 406.788 362.358 407.714 362.573 408.645C362.787 409.579 362.896 410.581 362.896 411.652C362.896 414.403 362.233 417.026 360.913 419.517C359.59 422.01 357.714 424.059 355.287 425.664C352.856 427.27 350.189 428.392 347.281 429.036C344.377 429.678 341.309 429.999 338.081 429.999C333.1 429.999 326.811 429.281 319.215 427.843C318.818 421.33 318.354 416.115 317.834 412.202C321.282 413.73 324.356 414.794 327.05 415.39C329.747 415.985 332.11 416.285 334.145 416.285C336.823 416.285 338.957 415.894 340.543 415.115C342.131 414.335 342.924 413.181 342.924 411.652C342.924 411.132 342.847 410.635 342.693 410.161C342.538 409.686 342.245 409.151 341.816 408.556C341.384 407.958 340.767 407.308 339.967 406.606L331.277 399.082C329.242 397.37 327.826 396.132 327.025 395.368C325.392 393.807 324.119 392.356 323.212 391.01C322.302 389.665 321.638 388.296 321.223 386.904C320.807 385.513 320.601 384.037 320.601 382.478C320.601 380.611 320.93 378.785 321.591 376.996C322.252 375.207 323.244 373.532 324.566 371.973C325.888 370.414 327.64 369.068 329.824 367.936C332.007 366.805 334.345 366.033 336.837 365.619C339.328 365.207 341.893 365 344.538 365ZM174.494 366.193C173.938 373.074 173.491 379.588 173.151 385.735C172.719 394.298 172.411 402.301 172.226 409.747C172.04 417.194 171.948 423.548 171.948 428.807L162.496 428.715C160.652 428.715 156.872 428.746 151.155 428.807C152.928 404.252 153.813 385.352 153.813 372.11L153.768 366.193C158.684 366.25 162.113 366.28 164.056 366.285L164.922 366.285C166.138 366.279 169.328 366.248 174.494 366.193ZM270.389 366.193L268.208 400.459L267.095 428.807L257.096 428.716C255.682 428.716 252.163 428.746 246.542 428.807C247.129 423.089 247.546 418.349 247.794 414.587C248.257 407.921 248.754 398.793 249.278 387.203C249.636 379.418 249.822 373.85 249.835 370.502L249.836 366.193C254.477 366.249 257.811 366.28 259.838 366.285L260.783 366.285C262.268 366.281 265.469 366.25 270.389 366.193ZM522 366.193L520.893 379.863L518.819 417.843L518.54 428.807C514.541 428.746 510.802 428.715 507.324 428.715C504.432 428.715 500.431 428.746 495.326 428.807C493.728 425.809 492.544 423.636 491.776 422.29L484.038 409.212C481.489 404.929 479.139 400.829 476.989 396.914C475.578 394.435 474.119 391.714 472.614 388.747L471.623 410.498L471.147 428.807C467.341 428.746 464.439 428.715 462.441 428.715C460.751 428.715 457.59 428.746 452.951 428.807L453.874 419.175L455.673 386.515L456.18 373.348V366.193C460.521 366.249 464.401 366.28 467.826 366.285L468.839 366.286C471.456 366.286 475.136 366.255 479.879 366.193L499.57 401.803L502.284 407.035C502.63 401.895 502.984 394.69 503.349 385.422C503.711 376.152 503.891 369.742 503.891 366.193C507.379 366.25 510.228 366.281 512.431 366.285L513.272 366.285C514.529 366.281 517.439 366.25 522 366.193ZM313.562 366.193L294.097 390.624L290.453 395.528L293.867 400.943L313.146 428.807L301.799 428.716C299.339 428.716 295.172 428.746 289.301 428.807C285.334 421.371 278.783 410.354 269.65 395.757L279.983 381.777L288.333 370.136L290.914 366.193C296.136 366.25 299.82 366.28 301.966 366.285L302.785 366.285C303.83 366.279 307.423 366.249 313.562 366.193ZM111.681 365.918C115.801 365.918 119.413 366.163 122.517 366.651C125.622 367.142 128.52 368.15 131.208 369.68C133.9 371.208 136.151 373.212 137.964 375.688C139.777 378.166 141.162 381.063 142.114 384.381C143.068 387.698 143.544 391.116 143.544 394.634C143.544 398.089 143.175 401.414 142.438 404.611C141.699 407.806 140.668 410.687 139.347 413.256C138.024 415.824 136.48 418.035 134.71 419.884C132.942 421.735 130.921 423.319 128.646 424.633C126.954 425.611 125.248 426.376 123.526 426.927C121.803 427.476 119.45 427.921 116.47 428.257C113.148 428.623 109.381 428.807 105.168 428.807L86.5344 428.668C84.7803 428.668 81.935 428.716 78 428.807C78.6814 421.834 79.1456 416.254 79.3924 412.064C79.7649 405.826 80.1359 397.752 80.5069 387.843C80.7847 380.261 80.9245 374.833 80.9245 371.56V366.193C84.5211 366.285 87.6256 366.33 90.238 366.33C92.7605 366.33 96.0652 366.262 100.152 366.125C104.241 365.988 108.084 365.918 111.681 365.918ZM408.348 378.807C404.811 378.807 401.614 379.672 398.754 381.399C395.895 383.127 393.696 385.529 392.158 388.601C390.622 391.674 389.852 394.97 389.852 398.487C389.852 401.728 390.552 404.695 391.952 407.386C393.349 410.077 395.477 412.178 398.34 413.692C401.2 415.206 404.227 415.963 407.426 415.963C410.839 415.963 413.966 415.115 416.813 413.417C419.656 411.719 421.825 409.334 423.316 406.261C424.806 403.189 425.553 399.97 425.553 396.605C425.553 393.334 424.862 390.314 423.478 387.546C422.092 384.779 420.063 382.631 417.389 381.101C414.715 379.573 411.7 378.807 408.348 378.807ZM107.336 379.358C105.121 379.358 102.509 379.45 99.4941 379.632L97.9419 415C99.6323 415.154 101.399 415.228 103.243 415.228C106.377 415.228 109.174 414.954 111.633 414.403C114.092 413.853 116.249 412.675 118.109 410.871C119.969 409.068 121.344 406.75 122.235 403.922C123.126 401.093 123.571 398.195 123.571 395.228C123.571 391.591 122.91 388.526 121.589 386.031C120.265 383.541 118.506 381.806 116.308 380.826C114.109 379.848 111.119 379.358 107.336 379.358Z" fill="#C1C5C8"/>
<path d="M82.494 106V87.005H85.452V106H82.494ZM101.182 106V87.005H104.604L108.084 96.662C108.297 97.2807 108.509 97.9187 108.722 98.576C108.935 99.214 109.147 99.852 109.36 100.49H109.476C109.689 99.852 109.892 99.214 110.085 98.576C110.298 97.9187 110.51 97.2807 110.723 96.662L114.145 87.005H117.567V106H114.841V96.546C114.841 95.966 114.86 95.3377 114.899 94.661C114.957 93.965 115.015 93.269 115.073 92.573C115.131 91.877 115.179 91.2487 115.218 90.688H115.102L113.594 95.067L110.259 104.144H108.432L105.097 95.067L103.589 90.688H103.473C103.512 91.2487 103.56 91.877 103.618 92.573C103.676 93.269 103.724 93.965 103.763 94.661C103.821 95.3377 103.85 95.966 103.85 96.546V106H101.182ZM130.8 106L137.093 87.005H140.515L146.808 106H143.676L140.602 95.676C140.273 94.632 139.964 93.588 139.674 92.544C139.384 91.4807 139.094 90.4173 138.804 89.354H138.688C138.417 90.4173 138.127 91.4807 137.818 92.544C137.528 93.588 137.228 94.632 136.919 95.676L133.816 106H130.8ZM134.338 100.577V98.257H143.183V100.577H134.338ZM167.768 106.348C166.066 106.348 164.549 105.971 163.215 105.217C161.9 104.444 160.866 103.322 160.112 101.853C159.358 100.384 158.981 98.6147 158.981 96.546C158.981 94.9993 159.203 93.617 159.648 92.399C160.112 91.181 160.74 90.1467 161.533 89.296C162.325 88.426 163.263 87.7687 164.346 87.324C165.428 86.8793 166.598 86.657 167.855 86.657C169.189 86.657 170.31 86.9083 171.219 87.411C172.147 87.8943 172.901 88.4357 173.481 89.035L171.886 90.949C171.422 90.4657 170.871 90.0597 170.233 89.731C169.614 89.4023 168.85 89.238 167.942 89.238C166.743 89.238 165.699 89.528 164.81 90.108C163.92 90.688 163.234 91.5193 162.751 92.602C162.267 93.6847 162.026 94.9703 162.026 96.459C162.026 97.967 162.258 99.272 162.722 100.374C163.186 101.457 163.862 102.298 164.752 102.897C165.641 103.477 166.743 103.767 168.058 103.767C168.657 103.767 169.227 103.69 169.769 103.535C170.31 103.361 170.745 103.119 171.074 102.81V98.344H167.304V95.908H173.742V104.115C173.123 104.753 172.292 105.285 171.248 105.71C170.223 106.135 169.063 106.348 167.768 106.348ZM188.823 106V87.005H200.046V89.499H191.781V94.835H198.77V97.329H191.781V103.506H200.336V106H188.823ZM238.947 106.348C237.361 106.348 235.931 105.971 234.655 105.217C233.379 104.444 232.364 103.322 231.61 101.853C230.875 100.384 230.508 98.6147 230.508 96.546C230.508 94.9993 230.72 93.617 231.146 92.399C231.59 91.181 232.199 90.1467 232.973 89.296C233.765 88.426 234.684 87.7687 235.728 87.324C236.772 86.8793 237.893 86.657 239.092 86.657C240.271 86.657 241.315 86.8987 242.224 87.382C243.132 87.846 243.877 88.397 244.457 89.035L242.862 90.949C242.378 90.427 241.827 90.0113 241.209 89.702C240.609 89.3927 239.923 89.238 239.15 89.238C238.048 89.238 237.071 89.528 236.221 90.108C235.389 90.688 234.732 91.5193 234.249 92.602C233.785 93.6847 233.553 94.9703 233.553 96.459C233.553 97.967 233.775 99.272 234.22 100.374C234.664 101.457 235.302 102.298 236.134 102.897C236.965 103.477 237.941 103.767 239.063 103.767C239.933 103.767 240.706 103.583 241.383 103.216C242.079 102.849 242.707 102.356 243.268 101.737L244.863 103.593C244.109 104.463 243.239 105.14 242.253 105.623C241.286 106.106 240.184 106.348 238.947 106.348ZM266.155 106.348C264.531 106.348 263.1 105.952 261.863 105.159C260.626 104.347 259.649 103.197 258.934 101.708C258.238 100.219 257.89 98.46 257.89 96.43C257.89 94.3807 258.238 92.631 258.934 91.181C259.649 89.7117 260.626 88.5903 261.863 87.817C263.1 87.0437 264.531 86.657 266.155 86.657C267.779 86.657 269.21 87.0437 270.447 87.817C271.684 88.5903 272.651 89.7117 273.347 91.181C274.062 92.631 274.42 94.3807 274.42 96.43C274.42 98.46 274.062 100.219 273.347 101.708C272.651 103.197 271.684 104.347 270.447 105.159C269.21 105.952 267.779 106.348 266.155 106.348ZM266.155 103.767C267.218 103.767 268.137 103.467 268.91 102.868C269.703 102.269 270.312 101.418 270.737 100.316C271.162 99.214 271.375 97.9187 271.375 96.43C271.375 94.9413 271.162 93.6653 270.737 92.602C270.312 91.5193 269.703 90.688 268.91 90.108C268.137 89.528 267.218 89.238 266.155 89.238C265.092 89.238 264.164 89.528 263.371 90.108C262.598 90.688 261.998 91.5193 261.573 92.602C261.148 93.6653 260.935 94.9413 260.935 96.43C260.935 97.9187 261.148 99.214 261.573 100.316C261.998 101.418 262.598 102.269 263.371 102.868C264.164 103.467 265.092 103.767 266.155 103.767ZM289.092 106V87.005H292.514L295.994 96.662C296.206 97.2807 296.419 97.9187 296.632 98.576C296.844 99.214 297.057 99.852 297.27 100.49H297.386C297.598 99.852 297.801 99.214 297.995 98.576C298.207 97.9187 298.42 97.2807 298.633 96.662L302.055 87.005H305.477V106H302.751V96.546C302.751 95.966 302.77 95.3377 302.809 94.661C302.867 93.965 302.925 93.269 302.983 92.573C303.041 91.877 303.089 91.2487 303.128 90.688H303.012L301.504 95.067L298.169 104.144H296.342L293.007 95.067L291.499 90.688H291.383C291.421 91.2487 291.47 91.877 291.528 92.573C291.586 93.269 291.634 93.965 291.673 94.661C291.731 95.3377 291.76 95.966 291.76 96.546V106H289.092ZM321.204 106V87.005H324.162V106H321.204ZM339.892 106V87.005H342.937L349.259 98.228L351.26 102.23H351.376C351.318 101.263 351.24 100.229 351.144 99.127C351.047 98.025 350.999 96.9617 350.999 95.937V87.005H353.812V106H350.767L344.445 94.748L342.444 90.775H342.328C342.405 91.7417 342.482 92.7567 342.56 93.82C342.656 94.8833 342.705 95.937 342.705 96.981V106H339.892ZM377.283 106.348C375.581 106.348 374.064 105.971 372.73 105.217C371.415 104.444 370.381 103.322 369.627 101.853C368.873 100.384 368.496 98.6147 368.496 96.546C368.496 94.9993 368.718 93.617 369.163 92.399C369.627 91.181 370.255 90.1467 371.048 89.296C371.84 88.426 372.778 87.7687 373.861 87.324C374.943 86.8793 376.113 86.657 377.37 86.657C378.704 86.657 379.825 86.9083 380.734 87.411C381.662 87.8943 382.416 88.4357 382.996 89.035L381.401 90.949C380.937 90.4657 380.386 90.0597 379.748 89.731C379.129 89.4023 378.365 89.238 377.457 89.238C376.258 89.238 375.214 89.528 374.325 90.108C373.435 90.688 372.749 91.5193 372.266 92.602C371.782 93.6847 371.541 94.9703 371.541 96.459C371.541 97.967 371.773 99.272 372.237 100.374C372.701 101.457 373.377 102.298 374.267 102.897C375.156 103.477 376.258 103.767 377.573 103.767C378.172 103.767 378.742 103.69 379.284 103.535C379.825 103.361 380.26 103.119 380.589 102.81V98.344H376.819V95.908H383.257V104.115C382.638 104.753 381.807 105.285 380.763 105.71C379.738 106.135 378.578 106.348 377.283 106.348ZM420.297 106.348C419.001 106.348 417.774 106.097 416.614 105.594C415.454 105.091 414.429 104.405 413.54 103.535L415.28 101.534C415.956 102.211 416.739 102.752 417.629 103.158C418.518 103.564 419.427 103.767 420.355 103.767C421.515 103.767 422.404 103.525 423.023 103.042C423.641 102.539 423.951 101.872 423.951 101.041C423.951 100.461 423.815 99.997 423.545 99.649C423.293 99.301 422.936 99.0013 422.472 98.75C422.027 98.4987 421.505 98.2473 420.906 97.996L418.267 96.836C417.648 96.5847 417.039 96.2463 416.44 95.821C415.86 95.3957 415.376 94.864 414.99 94.226C414.603 93.588 414.41 92.805 414.41 91.877C414.41 90.8717 414.68 89.9823 415.222 89.209C415.763 88.4163 416.498 87.7977 417.426 87.353C418.354 86.889 419.417 86.657 420.616 86.657C421.737 86.657 422.791 86.8793 423.777 87.324C424.782 87.7493 425.642 88.3197 426.358 89.035L424.821 90.92C424.241 90.398 423.603 89.992 422.907 89.702C422.211 89.3927 421.447 89.238 420.616 89.238C419.649 89.238 418.866 89.4603 418.267 89.905C417.687 90.3303 417.397 90.9297 417.397 91.703C417.397 92.2443 417.542 92.689 417.832 93.037C418.122 93.385 418.508 93.675 418.992 93.907C419.475 94.139 419.968 94.371 420.471 94.603L423.081 95.705C423.835 96.0143 424.502 96.3913 425.082 96.836C425.662 97.2807 426.116 97.822 426.445 98.46C426.793 99.098 426.967 99.881 426.967 100.809C426.967 101.834 426.696 102.771 426.155 103.622C425.633 104.453 424.869 105.12 423.864 105.623C422.858 106.106 421.669 106.348 420.297 106.348ZM448.486 106.348C446.862 106.348 445.431 105.952 444.194 105.159C442.956 104.347 441.98 103.197 441.265 101.708C440.569 100.219 440.221 98.46 440.221 96.43C440.221 94.3807 440.569 92.631 441.265 91.181C441.98 89.7117 442.956 88.5903 444.194 87.817C445.431 87.0437 446.862 86.657 448.486 86.657C450.11 86.657 451.54 87.0437 452.778 87.817C454.015 88.5903 454.982 89.7117 455.678 91.181C456.393 92.631 456.751 94.3807 456.751 96.43C456.751 98.46 456.393 100.219 455.678 101.708C454.982 103.197 454.015 104.347 452.778 105.159C451.54 105.952 450.11 106.348 448.486 106.348ZM448.486 103.767C449.549 103.767 450.467 103.467 451.241 102.868C452.033 102.269 452.642 101.418 453.068 100.316C453.493 99.214 453.706 97.9187 453.706 96.43C453.706 94.9413 453.493 93.6653 453.068 92.602C452.642 91.5193 452.033 90.688 451.241 90.108C450.467 89.528 449.549 89.238 448.486 89.238C447.422 89.238 446.494 89.528 445.702 90.108C444.928 90.688 444.329 91.5193 443.904 92.602C443.478 93.6653 443.266 94.9413 443.266 96.43C443.266 97.9187 443.478 99.214 443.904 100.316C444.329 101.418 444.928 102.269 445.702 102.868C446.494 103.467 447.422 103.767 448.486 103.767ZM478.643 106.348C477.019 106.348 475.589 105.952 474.351 105.159C473.114 104.347 472.138 103.197 471.422 101.708C470.726 100.219 470.378 98.46 470.378 96.43C470.378 94.3807 470.726 92.631 471.422 91.181C472.138 89.7117 473.114 88.5903 474.351 87.817C475.589 87.0437 477.019 86.657 478.643 86.657C480.267 86.657 481.698 87.0437 482.935 87.817C484.173 88.5903 485.139 89.7117 485.835 91.181C486.551 92.631 486.908 94.3807 486.908 96.43C486.908 98.46 486.551 100.219 485.835 101.708C485.139 103.197 484.173 104.347 482.935 105.159C481.698 105.952 480.267 106.348 478.643 106.348ZM478.643 103.767C479.707 103.767 480.625 103.467 481.398 102.868C482.191 102.269 482.8 101.418 483.225 100.316C483.651 99.214 483.863 97.9187 483.863 96.43C483.863 94.9413 483.651 93.6653 483.225 92.602C482.8 91.5193 482.191 90.688 481.398 90.108C480.625 89.528 479.707 89.238 478.643 89.238C477.58 89.238 476.652 89.528 475.859 90.108C475.086 90.688 474.487 91.5193 474.061 92.602C473.636 93.6653 473.423 94.9413 473.423 96.43C473.423 97.9187 473.636 99.214 474.061 100.316C474.487 101.418 475.086 102.269 475.859 102.868C476.652 103.467 477.58 103.767 478.643 103.767ZM501.58 106V87.005H504.625L510.947 98.228L512.948 102.23H513.064C513.006 101.263 512.929 100.229 512.832 99.127C512.736 98.025 512.687 96.9617 512.687 95.937V87.005H515.5V106H512.455L506.133 94.748L504.132 90.775H504.016C504.094 91.7417 504.171 92.7567 504.248 93.82C504.345 94.8833 504.393 95.937 504.393 96.981V106H501.58Z" fill="#ADB2B6"/>
<path d="M366.034 292.491L360.792 287.249L344.594 271.052L313.744 240.204L247.744 174.208L242.501 168.966C239.88 166.345 235.646 166.345 233.025 168.966C230.336 171.587 230.336 175.821 232.958 178.442L243.778 189.262V277.773C243.778 285.165 249.827 291.214 257.221 291.214H345.737L356.557 302.034C359.179 304.655 363.413 304.655 366.034 302.034C368.655 299.413 368.655 295.112 366.034 292.491ZM264.076 271.052C261.253 271.052 259.707 267.826 261.455 265.608L278.19 244.102C279.534 242.422 282.088 242.355 283.433 244.035L297.547 261.038L305.41 250.89L325.573 271.052H264.076ZM364.757 272.195L262.799 170.243H351.315C358.708 170.243 364.757 176.291 364.757 183.684V272.195Z" fill="#C1C5C8"/>
</svg>
