<svg width="12" height="12" viewBox="0 0 12 12" fill="none" xmlns="http://www.w3.org/2000/svg">
<path d="M10.9512 3.16471L10.9511 3.16481L4.66192 9.4542C4.49098 9.62505 4.21406 9.62509 4.04308 9.4543C4.04305 9.45427 4.04301 9.45424 4.04298 9.4542L1.04912 6.46016L1.04902 6.46006C0.878191 6.28932 0.878191 6.01241 1.04902 5.84166L1.0492 5.84149C1.21994 5.67066 1.49685 5.67066 1.6676 5.84149L1.66769 5.84158L3.9988 8.17269L4.35236 8.52625L4.70591 8.17269L10.3323 2.54613C10.3323 2.5461 10.3323 2.54607 10.3324 2.54604C10.5034 2.3752 10.7804 2.37536 10.9511 2.54604C11.1221 2.71704 11.122 2.99402 10.9512 3.16471Z" fill="white" stroke="white"/>
</svg>
