<?xml version="1.0" standalone="no"?>
<!DOCTYPE svg PUBLIC "-//W3C//DTD SVG 20010904//EN"
 "http://www.w3.org/TR/2001/REC-SVG-20010904/DTD/svg10.dtd">
<svg version="1.0" xmlns="http://www.w3.org/2000/svg"
 width="700.000000pt" height="700.000000pt" viewBox="0 0 700.000000 700.000000"
 preserveAspectRatio="xMidYMid meet">
<metadata>
Created by potrace 1.14, written by Peter Selinger 2001-2017
</metadata>
<g transform="translate(0.000000,700.000000) scale(0.100000,-0.100000)"
fill="#000000" stroke="none">
<path d="M210 6981 c0 -11 -47 -1577 -105 -3481 -58 -1904 -105 -3470 -105
-3481 0 -19 23 -19 1633 -19 1840 0 2091 7 2575 70 436 57 686 125 970 261
818 391 1370 1087 1657 2086 119 415 165 793 165 1368 0 643 -72 1079 -252
1525 -263 650 -656 1087 -1233 1370 -325 159 -612 235 -1065 280 -371 37 -528
40 -2402 40 -1813 0 -1838 0 -1838 -19z m3390 -1505 c299 -43 531 -127 702
-256 199 -150 376 -419 471 -715 164 -511 139 -1233 -64 -1823 -159 -461 -444
-797 -830 -981 -234 -112 -582 -173 -1064 -187 -192 -6 -570 8 -583 20 -2 3
19 856 47 1898 28 1041 51 1925 51 1964 l0 72 123 7 c67 4 181 11 252 15 219
13 764 4 895 -14z"/>
</g>
</svg>
